<svg width="120" height="55" viewBox="0 0 120 55" fill="none" xmlns="http://www.w3.org/2000/svg">
<path d="M10.7628 53.7714H0V23.9668H10.8058C15.3185 23.9668 18.9414 25.3124 21.6746 28.0037C24.4078 30.6949 25.7744 34.3255 25.7744 38.8956C25.7744 43.4656 24.4078 47.0886 21.6746 49.7644C18.9414 52.4401 15.3041 53.7758 10.7628 53.7714ZM6.64312 47.5058H10.5111C12.9529 47.5058 14.9498 46.7761 16.5018 45.3168C18.0539 43.8575 18.8321 41.7138 18.8365 38.8857C18.8365 36.0288 18.0583 33.8708 16.5018 32.4114C14.9454 30.9521 12.9484 30.2225 10.5111 30.2225H6.64312V47.5058Z" fill="#603F8B"/>
<path d="M41.9219 53.7711C41.7929 53.0779 41.7363 52.3731 41.753 51.6682C41.21 52.5415 40.3957 53.2127 39.4349 53.579C38.3967 54.0184 37.2804 54.2437 36.1531 54.2414C33.687 54.2414 31.7464 53.4631 30.3312 51.9067C28.9161 50.3502 28.2085 48.4063 28.2085 46.0749V32.8715H34.5966V44.7304C34.5557 45.6757 34.8632 46.6031 35.4609 47.3366C36.0328 47.999 36.8662 48.3301 37.9612 48.3301C38.4311 48.3523 38.9005 48.2753 39.3387 48.1041C39.7768 47.9329 40.1741 47.6715 40.5046 47.3366C40.8255 46.9895 41.0745 46.5822 41.2371 46.1383C41.3996 45.6943 41.4726 45.2226 41.4517 44.7502V32.8516H47.8431V50.0058C47.8361 51.2574 47.9058 52.5082 48.0517 53.7513L41.9219 53.7711Z" fill="#603F8B"/>
<path d="M59.4535 26.7849V32.8816H63.5334V38.475H59.4535V46.297C59.4535 47.7541 60.2262 48.4827 61.7717 48.4827C62.3375 48.4756 62.9008 48.4045 63.4507 48.2707V53.5693C62.6658 53.9601 61.5597 54.1588 60.139 54.1588C57.9799 54.1588 56.2777 53.5561 55.0325 52.3506C53.7873 51.1452 53.1637 49.5048 53.1614 47.4296V38.4882H49.4458V32.8948H50.4989C51.5619 32.8948 52.37 32.5637 52.9164 31.951C53.4816 31.2589 53.7727 30.3833 53.7343 29.4905V26.7849H59.4535Z" fill="#603F8B"/>
<path d="M72.783 53.7712H66.3916V32.8716H72.783V53.7712Z" fill="#603F8B"/>
<path d="M88.5928 38.2531H84.0492V53.7714H77.6578V38.2531H74.3462V32.8717H77.6578V31.0636C77.6578 28.635 78.3665 26.6801 79.7839 25.1987C81.2012 23.7173 83.1562 22.981 85.6488 22.9898C87.0485 22.9898 88.0574 23.1443 88.6756 23.4534V28.6692C88.0565 28.5207 87.4213 28.4495 86.7846 28.4573C86.0933 28.4448 85.4183 28.6679 84.8705 29.0898C84.3241 29.5071 84.0492 30.239 84.0492 31.2755V32.8717H88.5928V38.2531Z" fill="#603F8B"/>
<path d="M103.714 53.7712C103.588 53.0776 103.532 52.373 103.548 51.6683C103.004 52.5404 102.19 53.2113 101.23 53.5791C100.193 54.0188 99.0776 54.2441 97.9513 54.2414C95.4853 54.2414 93.5436 53.4632 92.1262 51.9067C90.7088 50.3503 90.0012 48.4097 90.0034 46.0849V32.8815H96.428V44.7404C96.387 45.6857 96.6946 46.6131 97.2923 47.3466C97.8663 48.0089 98.6997 48.3401 99.7926 48.3401C100.262 48.3623 100.732 48.2853 101.17 48.1141C101.608 47.943 102.005 47.6814 102.336 47.3466C102.657 46.9995 102.906 46.5922 103.068 46.1482C103.231 45.7043 103.304 45.2326 103.283 44.7603V32.8616H109.674V50.0158C109.667 51.2674 109.737 52.5182 109.883 53.7612L103.714 53.7712Z" fill="#603F8B"/>
<path d="M120 53.7711H113.608V23.3274H120V53.7711Z" fill="#603F8B"/>
<path d="M79.1413 3.81212C78.7616 2.87768 78.1567 2.05169 77.3803 1.4078C76.604 0.763902 75.6804 0.322121 74.6919 0.121793C73.7034 -0.0785344 72.6806 -0.031165 71.7148 0.259683C70.7491 0.550531 69.8703 1.07582 69.1568 1.78872L64.0635 6.882C62.9691 7.97519 62.3303 9.44297 62.2762 10.9889C62.2221 12.5348 62.7567 14.0437 63.7721 15.2107C64.0587 14.7416 64.4 14.308 64.7887 13.9192L69.882 8.82592C71.0962 7.61446 72.7167 6.8967 74.4297 6.81166C76.1428 6.72662 77.8264 7.28035 79.1546 8.3656C79.7343 6.90201 79.7283 5.27145 79.138 3.81212H79.1413Z" fill="#603F8B"/>
<path d="M78.8068 17.7505L69.68 26.8807L65.6464 22.8471C64.8237 22.0219 64.2726 20.9652 64.0666 19.8184C63.8607 18.6715 64.0098 17.4891 64.494 16.4292L64.5834 16.2438L64.6794 16.0616C64.9401 15.5902 65.2656 15.1577 65.6464 14.7767L70.7397 9.68342C71.7728 8.65266 73.1613 8.05639 74.6201 8.01698C76.079 7.97757 77.4976 8.498 78.5849 9.47147C78.6357 9.51342 78.6854 9.5598 78.7339 9.61058L78.8068 9.68342L78.8797 9.75627C79.9165 10.8331 80.4896 12.2735 80.476 13.7683C80.4624 15.263 79.8631 16.6928 78.8068 17.7505Z" fill="#A16AE8"/>
</svg>
