<svg width="80" height="80" viewBox="0 0 80 80" fill="none" xmlns="http://www.w3.org/2000/svg">
<path opacity="0.4" d="M73.3329 53.1341C73.3329 62.4341 65.8663 69.9675 56.5663 70.0008H56.5329H23.4996C14.2329 70.0008 6.66626 62.5008 6.66626 53.2008V53.1675C6.66626 53.1675 6.68626 38.4141 6.71293 30.9941C6.71626 29.6008 8.31626 28.8208 9.40626 29.6875C17.3263 35.9708 31.4896 47.4275 31.6663 47.5775C34.0329 49.4741 37.0329 50.5441 40.0996 50.5441C43.1663 50.5441 46.1663 49.4741 48.5329 47.5408C48.7096 47.4241 62.5563 36.3108 70.5963 29.9241C71.6896 29.0541 73.2963 29.8341 73.2996 31.2241C73.3329 38.5875 73.3329 53.1341 73.3329 53.1341Z" fill="#603F8B"/>
<path d="M71.5867 18.9116C68.7 13.4716 63.02 9.99829 56.7667 9.99829H23.5C17.2467 9.99829 11.5667 13.4716 8.68002 18.9116C8.03335 20.1283 8.34002 21.645 9.41669 22.505L34.1667 42.3016C35.9 43.7016 38 44.3983 40.1 44.3983C40.1133 44.3983 40.1234 44.3983 40.1334 44.3983C40.1434 44.3983 40.1567 44.3983 40.1667 44.3983C42.2667 44.3983 44.3667 43.7016 46.1 42.3016L70.85 22.505C71.9267 21.645 72.2333 20.1283 71.5867 18.9116Z" fill="#603F8B"/>
</svg>
