<svg width="24" height="25" viewBox="0 0 24 25" fill="none" xmlns="http://www.w3.org/2000/svg">
<circle cx="11.5788" cy="7.77803" r="4.77803" stroke="#603F8B" stroke-width="2" stroke-linecap="round" stroke-linejoin="round"/>
<path fill-rule="evenodd" clip-rule="evenodd" d="M4.00002 19.2014C3.99873 18.8655 4.07385 18.5338 4.2197 18.2312C4.67736 17.3158 5.96798 16.8307 7.03892 16.611C7.81128 16.4462 8.59431 16.3361 9.38217 16.2815C10.8408 16.1534 12.3079 16.1534 13.7666 16.2815C14.5544 16.3367 15.3374 16.4468 16.1099 16.611C17.1808 16.8307 18.4714 17.2701 18.9291 18.2312C19.2224 18.848 19.2224 19.564 18.9291 20.1808C18.4714 21.1419 17.1808 21.5813 16.1099 21.7918C15.3384 21.9635 14.5551 22.0767 13.7666 22.1305C12.5794 22.2311 11.3866 22.2495 10.1968 22.1854C9.92221 22.1854 9.65677 22.1854 9.38217 22.1305C8.59663 22.0773 7.81632 21.9641 7.04807 21.7918C5.96798 21.5813 4.68652 21.1419 4.2197 20.1808C4.0746 19.8747 3.99955 19.5402 4.00002 19.2014Z" stroke="#603F8B" stroke-width="2" stroke-linecap="round" stroke-linejoin="round"/>
</svg>
